<?xml version="1.0" standalone="no"?>
<!DOCTYPE svg PUBLIC "-//W3C//DTD SVG 20010904//EN"
 "http://www.w3.org/TR/2001/REC-SVG-20010904/DTD/svg10.dtd">
<svg version="1.0" xmlns="http://www.w3.org/2000/svg"
 width="539.000000pt" height="539.000000pt" viewBox="0 0 539.000000 539.000000"
 preserveAspectRatio="xMidYMid meet">
<metadata>
Created by potrace 1.14, written by Peter Selinger 2001-2017
</metadata>
<g transform="translate(0.000000,539.000000) scale(0.100000,-0.100000)"
fill="#000000" stroke="none">
<path d="M1884 5366 c-12 -31 7 -103 37 -144 21 -29 50 -49 101 -73 39 -19 64
-35 55 -37 -8 -2 -38 9 -66 24 -55 28 -98 28 -137 -1 -16 -11 -17 -17 -7 -34
11 -18 9 -20 -20 -27 -44 -9 -127 -52 -127 -65 0 -7 11 -8 33 -3 64 16 140 10
187 -14 93 -50 100 -90 37 -222 -47 -97 -66 -170 -62 -245 3 -79 28 -133 104
-225 34 -41 76 -104 92 -139 39 -79 87 -133 143 -160 37 -17 69 -21 202 -24
104 -3 178 -10 214 -21 116 -34 196 -19 222 42 7 15 13 28 14 30 3 5 178 -58
187 -67 4 -4 -36 -27 -90 -51 -54 -23 -132 -60 -173 -81 -119 -61 -103 -57
-340 -74 -41 -3 -102 -8 -135 -10 l-60 -4 -38 50 c-54 71 -117 109 -182 109
-28 0 -74 -6 -103 -13 -49 -13 -52 -13 -70 7 -33 37 -158 210 -216 298 -68
104 -70 129 -25 284 45 156 52 294 15 294 -22 0 -55 -48 -68 -97 -6 -24 -14
-46 -19 -48 -11 -7 -5 17 25 115 27 84 29 147 5 176 -15 18 -39 5 -99 -53 -25
-24 -63 -56 -86 -70 -22 -14 -54 -47 -70 -72 -26 -42 -29 -54 -28 -131 1 -72
7 -103 42 -202 22 -64 61 -163 85 -220 25 -57 62 -157 82 -223 20 -66 53 -153
71 -193 l35 -73 -43 -43 c-38 -37 -133 -141 -239 -261 -30 -34 -145 -175 -182
-225 -7 -9 -34 -48 -62 -88 -53 -79 -51 -79 -147 -58 -67 15 -245 29 -387 30
l-93 1 -29 -35 c-35 -41 -62 -119 -61 -174 1 -48 25 -123 93 -297 53 -134 77
-177 174 -309 89 -121 88 -119 91 -255 2 -102 7 -141 38 -258 74 -278 148
-410 278 -493 l38 -24 -39 -73 c-95 -176 -98 -184 -95 -221 3 -47 16 -61 83
-96 111 -55 378 -115 606 -134 33 -3 92 -9 130 -13 39 -5 142 -8 230 -8 176 0
200 6 256 67 32 35 59 34 106 -6 16 -13 47 -34 70 -46 23 -12 45 -30 48 -39 3
-10 17 -23 30 -29 14 -6 25 -19 25 -27 0 -8 11 -21 25 -27 14 -6 25 -14 25
-17 -1 -3 -19 -18 -40 -33 -22 -15 -40 -33 -40 -38 0 -7 10 -4 22 4 28 20 84
21 91 2 9 -23 67 -50 80 -37 8 8 5 15 -9 25 -17 13 -13 13 32 2 41 -11 57 -11
80 -1 40 17 74 52 74 75 0 27 7 25 38 -11 33 -39 51 -70 52 -87 0 -14 -42 -58
-80 -83 -15 -10 -21 -20 -15 -28 12 -20 62 -5 102 29 41 36 53 37 83 5 17 -19
22 -35 22 -72 -2 -67 3 -79 55 -118 44 -33 93 -51 65 -23 -20 20 -14 23 54 25
91 4 137 -22 156 -85 23 -79 62 -66 47 16 -15 77 -50 119 -136 158 -29 14 -53
29 -53 34 0 11 29 2 51 -16 24 -21 71 -27 117 -15 51 14 61 29 34 51 -21 17
-21 18 15 23 47 8 143 48 143 60 0 5 -10 7 -22 3 -95 -26 -183 -8 -242 48 -48
45 -47 75 10 195 72 151 87 262 46 354 -11 23 -44 74 -75 112 -31 39 -75 106
-97 151 -78 155 -127 184 -331 189 -94 3 -161 10 -217 24 -144 37 -207 28
-237 -36 -9 -19 -22 -33 -28 -30 -128 46 -186 71 -182 77 2 4 55 28 117 54 62
26 145 63 183 81 94 43 100 45 196 50 46 2 148 7 227 10 l143 7 58 -55 c65
-62 95 -72 184 -63 67 7 64 11 187 -164 44 -63 88 -123 96 -134 28 -33 84
-159 84 -189 0 -15 -7 -44 -16 -65 -8 -20 -15 -39 -15 -42 0 -3 -4 -22 -10
-43 -5 -21 -12 -52 -14 -70 -3 -18 -8 -52 -13 -77 -9 -48 -8 -100 2 -125 16
-43 67 7 87 85 7 28 17 50 22 50 9 0 0 -54 -14 -80 -35 -66 -51 -194 -27 -218
20 -20 37 -14 86 31 26 24 63 54 82 67 171 114 173 233 13 625 -25 61 -57 146
-70 190 -57 187 -66 213 -94 274 l-30 64 68 71 c79 83 72 74 147 160 32 37 68
79 80 94 11 15 23 29 26 32 19 16 165 208 215 283 32 48 62 90 66 93 5 3 35 0
66 -5 81 -14 195 -21 351 -23 l133 -2 24 29 c33 40 59 120 57 175 -1 54 -32
151 -102 315 -51 122 -92 190 -199 328 -34 43 -61 88 -61 100 -1 79 -10 217
-15 242 -9 42 -71 251 -90 305 -47 129 -124 236 -215 299 l-46 31 63 127 c81
164 82 198 3 248 -64 41 -198 78 -400 111 -14 2 -34 6 -45 8 -25 6 -112 15
-190 20 -33 3 -103 8 -155 12 -52 5 -148 8 -213 7 -105 -1 -123 -4 -170 -27
-30 -14 -60 -37 -67 -51 -9 -16 -22 -25 -38 -25 -28 0 -131 62 -176 106 -17
16 -39 33 -48 37 -10 3 -18 13 -18 21 0 9 -12 22 -27 30 l-28 15 32 12 c32 13
62 53 49 66 -4 4 -11 2 -15 -6 -4 -7 -24 -16 -44 -21 -31 -7 -39 -4 -63 21
-30 31 -74 39 -74 14 0 -8 5 -15 12 -15 6 0 9 -3 5 -6 -3 -3 -21 -1 -40 5 -67
22 -130 -18 -142 -90 l-7 -40 -16 30 c-10 16 -29 45 -45 64 -24 30 -26 38 -17
62 12 31 42 61 72 71 28 8 18 38 -14 42 -19 2 -38 -7 -67 -34 -68 -61 -113
-32 -115 74 -2 51 -4 57 -46 93 -46 39 -87 52 -76 24 4 -12 -3 -15 -32 -16
-76 -3 -111 0 -132 11 -24 13 -60 67 -60 92 0 23 -19 33 -26 14z m1628 -1959
c6 -44 166 -59 277 -27 40 11 94 -11 123 -50 23 -32 18 -48 -27 -78 -50 -35
-85 -85 -113 -166 -21 -59 -26 -93 -28 -199 l-3 -128 -78 -5 c-115 -8 -152 -8
-218 1 -85 10 -157 -18 -237 -94 -56 -52 -61 -61 -65 -107 -8 -81 14 -88 204
-70 59 5 106 10 230 22 28 2 54 0 57 -5 4 -5 -12 -36 -34 -70 -22 -33 -79
-140 -127 -238 -48 -98 -89 -180 -90 -182 -6 -9 -14 7 -19 35 -10 58 -21 80
-87 169 -4 5 -33 47 -65 91 -31 45 -84 112 -117 149 -33 37 -89 106 -124 154
-36 47 -82 106 -104 131 -40 47 -42 60 -22 160 2 13 -4 42 -15 65 -15 31 -36
50 -96 85 -75 44 -78 47 -115 125 -21 44 -49 99 -64 123 -14 23 -23 42 -18 43
4 0 44 2 88 4 44 1 105 5 135 9 30 4 73 9 95 12 69 8 169 22 205 29 14 3 36 7
50 10 14 3 48 9 76 15 81 17 245 26 286 17 26 -7 38 -15 40 -30z m-1418 -77
c25 -78 106 -204 212 -331 44 -52 94 -114 112 -139 18 -25 56 -76 85 -114 85
-112 85 -112 76 -159 -23 -120 -7 -152 115 -227 69 -42 87 -58 102 -93 10 -23
36 -71 59 -107 23 -36 44 -69 47 -75 4 -6 -32 -10 -100 -11 -97 0 -176 -5
-317 -20 -27 -3 -106 -14 -175 -26 -172 -28 -173 -28 -276 -33 -99 -4 -154 8
-154 36 0 8 -12 22 -27 29 -39 18 -169 21 -236 6 -53 -13 -58 -12 -97 11 -23
14 -46 37 -51 51 -9 24 -7 30 23 55 94 80 114 109 142 207 20 71 26 116 27
217 l0 81 72 2 c80 3 159 2 257 -2 54 -3 74 2 120 25 105 52 175 139 163 202
-10 48 -25 49 -436 19 l-79 -6 13 24 c6 12 29 48 49 78 43 64 76 124 150 268
47 93 55 103 77 100 22 -3 29 -13 47 -68z"/>
</g>
</svg>
